<?xml version="1.0" encoding="UTF-8" standalone="no"?>
<svg
   xmlns:dc="http://purl.org/dc/elements/1.1/"
   xmlns:cc="http://creativecommons.org/ns#"
   xmlns:rdf="http://www.w3.org/1999/02/22-rdf-syntax-ns#"
   xmlns:svg="http://www.w3.org/2000/svg"
   xmlns="http://www.w3.org/2000/svg"
   xmlns:sodipodi="http://sodipodi.sourceforge.net/DTD/sodipodi-0.dtd"
   xmlns:inkscape="http://www.inkscape.org/namespaces/inkscape"
   width="219.68968"
   height="90.689423"
   id="svg2"
   version="1.1"
   inkscape:version="0.48.3.1 r9886"
   sodipodi:docname="key3.svg">
  <defs
     id="defs17" />
  <sodipodi:namedview
     pagecolor="#ffffff"
     bordercolor="#666666"
     borderopacity="1"
     objecttolerance="10"
     gridtolerance="10"
     guidetolerance="10"
     inkscape:pageopacity="0"
     inkscape:pageshadow="2"
     inkscape:window-width="753"
     inkscape:window-height="480"
     id="namedview15"
     showgrid="false"
     fit-margin-top="0"
     fit-margin-left="0"
     fit-margin-right="0"
     fit-margin-bottom="0"
     inkscape:zoom="1.18"
     inkscape:cx="119.6304"
     inkscape:cy="36.368714"
     inkscape:window-x="228"
     inkscape:window-y="46"
     inkscape:window-maximized="0"
     inkscape:current-layer="svg2" />
  <metadata
     id="metadata27">image/svg+xml<rdf:RDF>
  <cc:Work
     rdf:about="">
    <dc:format>image/svg+xml</dc:format>
    <dc:type
       rdf:resource="http://purl.org/dc/dcmitype/StillImage" />
  </cc:Work>
</rdf:RDF>
</metadata>
  <g
     id="g5"
     transform="matrix(-0.78536442,0.6190337,-0.6190337,-0.78536442,245.59841,66.511871)"
     style="fill:#ffffff;fill-opacity:1;stroke:none">
    <title
       id="title7">Layer 1</title>
    <g
       id="g6065"
       style="fill:#ffffff;fill-opacity:1;stroke:none">
      <rect
         stroke-miterlimit="4"
         width="6.9772601"
         height="22.92527"
         rx="3.4886301"
         ry="3.4886301"
         x="-174.83789"
         y="13.97186"
         transform="matrix(-0.782159,-0.623078,-0.623078,0.782159,0,0)"
         id="rect6028"
         style="fill:#ffffff;fill-opacity:1;fill-rule:evenodd;stroke:none" />
      <rect
         stroke-miterlimit="4"
         width="141.66321"
         height="12.58398"
         x="-167.73602"
         y="19.142521"
         transform="matrix(-0.782159,-0.623078,-0.623078,0.782159,0,0)"
         id="rect6030"
         style="fill:#ffffff;fill-opacity:1;fill-rule:evenodd;stroke:none" />
      <path
         stroke-miterlimit="4"
         d="M 23.57359,43.25299 28.85255,36.62622 18.03534,28.00909 39.84986,0.625 l 5.65224,4.50269 -7.21975,9.06305 6.04204,4.81317 7.21975,-9.06305 9.84268,7.84076 -10.86845,13.64337 -9.55032,-7.60791 -4.6579,5.84711 9.55032,7.60791 -6.28818,7.89362 5.25972,4.19 6.28818,-7.89368 9.55032,7.60791 4.6579,-5.84711 -9.55032,-7.60791 10.86845,-13.64331 9.84267,7.84082 -7.21976,9.06305 6.04204,4.81317 7.21975,-9.06311 5.65224,4.50269 L 66.36896,66.51233 55.55175,57.8952 50.27279,64.52191 23.57358,43.25299 z"
         id="path6036"
         inkscape:connector-curvature="0"
         style="fill:#ffffff;fill-opacity:1;fill-rule:evenodd;stroke:none" />
      <path
         stroke-miterlimit="4"
         d="m 125.08833,132.16528 c -13.75032,17.26099 -13.42644,40.41779 0.72293,51.68939 14.14937,11.27155 36.79257,6.41058 50.54289,-10.8504 13.75031,-17.26093 13.42644,-40.41779 -0.72293,-51.68933 -14.14938,-11.27155 -36.7926,-6.41064 -50.54289,10.85034 z m 42.58327,33.92242 c -9.56871,12.01178 -24.92838,15.71106 -34.28499,8.25745 -7.99225,-6.3667 -11.54476,-26.08752 5.45178,-31.22638 1.20929,-17.71521 21.22519,-18.66113 29.21745,-12.29437 9.3566,7.45361 9.18445,23.25153 -0.38425,35.26331 z"
         id="path6038"
         inkscape:connector-curvature="0"
         style="fill:#ffffff;fill-opacity:1;fill-rule:evenodd;stroke:none" />
      <rect
         stroke-miterlimit="4"
         width="6.9772601"
         height="25.167959"
         rx="3.23944"
         ry="3.23944"
         x="-181.81512"
         y="12.85052"
         transform="matrix(-0.782159,-0.623078,-0.623078,0.782159,0,0)"
         id="rect6026"
         style="fill:#ffffff;fill-opacity:1;fill-rule:evenodd;stroke:none" />
    </g>
  </g>
</svg>
